<?xml version="1.0" encoding="UTF-8"?>
<svg width="244px" height="64px" viewBox="0 0 244 64" version="1.1" xmlns="http://www.w3.org/2000/svg" xmlns:xlink="http://www.w3.org/1999/xlink">
    <!-- Generator: Sketch 55.2 (78181) - https://sketchapp.com -->
    <title>LL Logotype (Dark)</title>
    <desc>Created with Sketch.</desc>
    <g id="Logo" stroke="none" stroke-width="1" fill="none" fill-rule="evenodd">
        <g id="Approved-Logotype" transform="translate(-190.000000, -80.000000)">
            <g id="LL-Logotype-(Dark)" transform="translate(190.000000, 80.000000)">
                <path d="M90.084,19.8 L95.952,19.8 L91.848,40.248 L104.484,40.248 L103.512,45 L85.044,45 L90.084,19.8 Z M125.908,33.876 C125.908,34.7640044 125.800001,35.7479946 125.584,36.828 L110.752,36.828 C110.944001,39.4680132 112.611984,40.788 115.756,40.788 C116.740005,40.788 117.681995,40.6320016 118.582,40.32 C119.482004,40.0079984 120.267997,39.5640029 120.94,38.988 L123.28,42.696 C122.199995,43.5600043 120.964007,44.2079978 119.572,44.64 C118.179993,45.0720022 116.716008,45.288 115.18,45.288 C113.18799,45.288 111.442007,44.9340035 109.942,44.226 C108.441992,43.5179965 107.290004,42.5040066 106.486,41.184 C105.681996,39.8639934 105.28,38.3400086 105.28,36.612 C105.28,34.4759893 105.765995,32.5500086 106.738,30.834 C107.710005,29.1179914 109.059991,27.7740049 110.788,26.802 C112.516009,25.8299951 114.483989,25.344 116.692,25.344 C118.564009,25.344 120.189993,25.6919965 121.57,26.388 C122.950007,27.0840035 124.017996,28.0799935 124.774,29.376 C125.530004,30.6720065 125.908,32.1719915 125.908,33.876 Z M116.44,29.556 C115.119993,29.556 114.004005,29.9099965 113.092,30.618 C112.179995,31.3260035 111.532002,32.3039938 111.148,33.552 L120.76,33.552 C120.76,32.3039938 120.370004,31.3260035 119.59,30.618 C118.809996,29.9099965 117.760007,29.556 116.44,29.556 Z M141.212,25.344 C143.372011,25.344 145.087994,25.9139943 146.36,27.054 C147.632006,28.1940057 148.268,29.8199894 148.268,31.932 C148.268,32.724004 148.184001,33.5039962 148.016,34.272 L145.856,45 L140.24,45 L142.328,34.632 C142.424,34.223998 142.472,33.7800024 142.472,33.3 C142.472,32.291995 142.196003,31.5240026 141.644,30.996 C141.092,30.4679974 140.264006,30.204 139.16,30.204 C137.719993,30.204 136.526005,30.6179959 135.578,31.446 C134.629995,32.2740041 133.988002,33.5159917 133.652,35.172 L131.708,45 L126.092,45 L129.944,25.632 L135.272,25.632 L134.84,27.72 C136.568009,26.1359921 138.691987,25.344 141.212,25.344 Z M174.804,18.288 L169.476,45 L164.148,45 L164.544,43.056 C162.911992,44.5440074 160.932012,45.288 158.604,45.288 C157.091992,45.288 155.700006,44.9400035 154.428,44.244 C153.155994,43.5479965 152.142004,42.5460065 151.386,41.238 C150.629996,39.9299935 150.252,38.3880089 150.252,36.612 C150.252,34.4759893 150.725995,32.5500086 151.674,30.834 C152.622005,29.1179914 153.911992,27.7740049 155.544,26.802 C157.176008,25.8299951 158.97599,25.344 160.944,25.344 C162.360007,25.344 163.601995,25.5839976 164.67,26.064 C165.738005,26.5440024 166.583997,27.2519953 167.208,28.188 L169.188,18.288 L174.804,18.288 Z M160.332,40.644 C161.436006,40.644 162.419996,40.3740027 163.284,39.834 C164.148004,39.2939973 164.819998,38.5440048 165.3,37.584 C165.780002,36.6239952 166.02,35.5200062 166.02,34.272 C166.02,32.9519934 165.630004,31.9080038 164.85,31.14 C164.069996,30.3719962 162.984007,29.988 161.592,29.988 C160.487994,29.988 159.504004,30.2579973 158.64,30.798 C157.775996,31.3380027 157.104002,32.0879952 156.624,33.048 C156.143998,34.0080048 155.904,35.1119938 155.904,36.36 C155.904,37.6800066 156.293996,38.7239962 157.074,39.492 C157.854004,40.2600038 158.939993,40.644 160.332,40.644 Z M178.624,18.288 L184.24,18.288 L178.912,45 L173.296,45 L178.624,18.288 Z M192.848,45.288 C190.90399,45.288 189.194007,44.9280036 187.718,44.208 C186.241993,43.4879964 185.102004,42.4740065 184.298,41.166 C183.493996,39.8579935 183.092,38.3400086 183.092,36.612 C183.092,34.4759893 183.595995,32.5560085 184.604,30.852 C185.612005,29.1479915 187.003991,27.8040049 188.78,26.82 C190.556009,25.8359951 192.559989,25.344 194.792,25.344 C196.76001,25.344 198.475993,25.7039964 199.94,26.424 C201.404007,27.1440036 202.537996,28.1579935 203.342,29.466 C204.146004,30.7740065 204.548,32.2919914 204.548,34.02 C204.548,36.1560107 204.050005,38.0759915 203.054,39.78 C202.057995,41.4840085 200.666009,42.8279951 198.878,43.812 C197.089991,44.7960049 195.080011,45.288 192.848,45.288 Z M193.208,40.644 C194.288005,40.644 195.259996,40.3740027 196.124,39.834 C196.988004,39.2939973 197.659998,38.5440048 198.14,37.584 C198.620002,36.6239952 198.86,35.5200062 198.86,34.272 C198.86,32.9519934 198.476004,31.9080038 197.708,31.14 C196.939996,30.3719962 195.860007,29.988 194.468,29.988 C193.363994,29.988 192.380004,30.2579973 191.516,30.798 C190.651996,31.3380027 189.980002,32.0879952 189.5,33.048 C189.019998,34.0080048 188.78,35.1119938 188.78,36.36 C188.78,37.6800066 189.169996,38.7239962 189.95,39.492 C190.730004,40.2600038 191.815993,40.644 193.208,40.644 Z M213.588,27.936 C214.428004,27.0239954 215.441994,26.364002 216.63,25.956 C217.818006,25.547998 219.215992,25.344 220.824,25.344 L219.816,30.528 C219.143997,30.4799998 218.712001,30.456 218.52,30.456 C216.815991,30.456 215.454005,30.8759958 214.434,31.716 C213.413995,32.5560042 212.724002,33.8639911 212.364,35.64 L210.492,45 L204.876,45 L208.728,25.632 L214.056,25.632 L213.588,27.936 Z M243.688,18.288 L238.36,45 L233.032,45 L233.428,43.056 C231.795992,44.5440074 229.816012,45.288 227.488,45.288 C225.975992,45.288 224.584006,44.9400035 223.312,44.244 C222.039994,43.5479965 221.026004,42.5460065 220.27,41.238 C219.513996,39.9299935 219.136,38.3880089 219.136,36.612 C219.136,34.4759893 219.609995,32.5500086 220.558,30.834 C221.506005,29.1179914 222.795992,27.7740049 224.428,26.802 C226.060008,25.8299951 227.85999,25.344 229.828,25.344 C231.244007,25.344 232.485995,25.5839976 233.554,26.064 C234.622005,26.5440024 235.467997,27.2519953 236.092,28.188 L238.072,18.288 L243.688,18.288 Z M229.216,40.644 C230.320006,40.644 231.303996,40.3740027 232.168,39.834 C233.032004,39.2939973 233.703998,38.5440048 234.184,37.584 C234.664002,36.6239952 234.904,35.5200062 234.904,34.272 C234.904,32.9519934 234.514004,31.9080038 233.734,31.14 C232.953996,30.3719962 231.868007,29.988 230.476,29.988 C229.371994,29.988 228.388004,30.2579973 227.524,30.798 C226.659996,31.3380027 225.988002,32.0879952 225.508,33.048 C225.027998,34.0080048 224.788,35.1119938 224.788,36.36 C224.788,37.6800066 225.177996,38.7239962 225.958,39.492 C226.738004,40.2600038 227.823993,40.644 229.216,40.644 Z" id="Lendlord" fill="#74818F" fill-rule="nonzero"></path>
            </g>
        </g>
    </g>
</svg>
